<?xml version="1.0" encoding="UTF-8"?>
<svg version="1.1" viewBox="0 0 1484 976" width="200" height="200" xmlns="http://www.w3.org/2000/svg">
<path transform="translate(0)" d="m0 0h1484v976h-1484z" fill="#1F2029"/>
<path transform="translate(340,34)" d="m0 0h16l26 3 18 5 19 8 5 3 16 10 9 8 8 7 8 8 13 18 9 17 7 16 4 13 2 11 1 15v21l-2 16-5 19-6 16-10 18-7 9-7 8-11 12-13 11-14 9-19 10-15 5-24 6 31 13 187 80 63 27 30 13 24 10 8 2 8 4 7 3 10 6 4 3v2l6 2 11 5-6-9 4 2 5 3 9 7 20 6 16 8 22 9 21 9 37 16 26 11 24 10 15 7 24 10 30 13 26 11 30 13 26 11 30 13 26 11 23 10 24 10 13 3-7-8-9-12-8-13-5-12-4-16-3-7v-4l9-4 5-1-15 3-2-4-2-17v-19l3-20 5-17 5-13 6-12 10-15 11-13 11-11 18-13 15-5 19-9 9-3 8-4 11-1h27l23 4 19 6 15 7 14 8 12 9 10 9 9 9 3 5-4-1 1 5 11 14 8 14 6 16 5 21 1 7v32l-3 12-5 15v2h-2l1 3v9l-7 14-12 17-16 17-11 10-17 11-21 10-13 4-25 4h-29l-24-4 36 6v2l5 2 32 13 30 13 34 15 13 5 1 5-7 16-4 1-22-10-77-33-15-6-15-7-28-12-23-10-62-26-34-15-36-15-30-13-54-23-264-113-23-10-18-7-6-2-6 3-13 5-6 7-7 18-4 10-5 15-4 8-5 16-5 12-7 20-5 12-4 10-4 9-3 7-11 25-12 23-10 13-9 9-14 8-5 1h-21l-11-3-9-6-7-11-1-3v-14l5-10 7-6 6-3h11l10 5 4 5 3 6v11l-4 5v3l7-1 8-6 6-6 1-3h2v-3l2-1 5-13 3-9v-11l-6-12-1-3h-2l-4-5-3-6-2-6-5-13-5-10-3-9v-4h-2l-9-21-1-7h-2l-3-8-3-7-3-12h-2l-7-17-3-7-5-4-12-3-1-1v-19h89l1 1v17l-6 2-13 2-6 3-2 2v7l3 9 4 9 8 22 4 12 2 3 8 24 2 3 2 6 3 8 4 10 1 1 5-14 2-2 3-11 4-9 5-15 4-9 5-15 4-10 5-14 2-4 1-13-14-3-14-2v-20h43l6 2-15-5-9-5-19-8-26-11-42-18-30-13-26-11-79-34-26-11-58-25-25-11-44-19-39-16-114-49 1-5 5-11 2-4 6 1 29 12 52 22 11 5 7 3-6-9-5-8-9-20-5-18-3-14-1-11v-25l2-14 4-17 5-15 10-19 9-12 11-13 6-7 14-11 10-8 17-9 22-8 17-4z" fill="#050405"/>
<path transform="translate(1292,440)" d="m0 0h27l23 4 19 6 15 7 14 8 12 9 10 9 9 9 3 5-4-1 1 5 11 14 8 14 6 16 5 21 1 7v32l-3 12-5 15v2h-2l1 3v9l-7 14-12 17-16 17-11 10-17 11-21 10-13 4-25 4h-29l-27-5-20-8-15-8-14-10-12-10v-2h-2l-7-8-9-12-8-13-5-12-4-16-3-7v-4l9-4 5-1-15 3-2-4-2-17v-19l3-20 5-17 5-13 6-12 10-15 11-13 11-11 18-13 15-5 19-9 9-3 8-4z" fill="#CBDE39"/>
<path transform="translate(33,408)" d="m0 0h111l23 4 13 6 5 2v2l4 1 10 7 4 5 6 9 4 8 5 18v25l-3 12-8 16-7 9-9 9-15 9-6 3-16 4-13 3h-43l1 9v51l3 6 10 3 26 3 1 1v18l-1 1h-104l-1-1v-18l1-1 15-2 10-5v-191l-14-5-10-1-2-1z" fill="#FCC21B"/>
<path transform="translate(1292,440)" d="m0 0h27l23 4 19 6 15 7 14 8 12 9 10 9 9 9 3 5-4-1 1 5 11 14 8 14 6 16 5 21 1 7v32l-3 12-5 15v2h-2l1 3v9l-7 14-12 17-16 17-11 10-17 11-21 10-13 4-25 4h-29l-27-5-20-8-15-8-14-10-12-10v-2h-2l-7-8-9-12-8-13-5-12-4-16-3-7v-4l9-4 14-2h14v2l9 2 24 11 15 8 16 8 34 18 24 11 20 8 10 3 7 1h18l15-4 13-8 14-14 10-15 6-10 8-22 2-17v-11l-2-17-6-22-5-13-6-10-5-5-2-1-2-3-2-2v-4h-3l-4-5-17-11-17-9-20-8-19-7-16-3-23-3-14-1h-38l-2-2 19-9 9-3 8-4z" fill="#C8D939"/>
<path transform="translate(405,483)" d="m0 0h20l14 2 15 6 10 8 4 5v2h2l6 15 2 26 1 82 4 6 7-1 4-4 3-8 1-10 19 1 1 1-1 9-3 12-6 10-8 7-9 4h-22l-9-4-8-6-4-5-2-4-5 2-9 6-12 6-13 4-5 1h-26l-12-3-11-6-4-4-5-4-4-8-3-7-1-6v-12l4-13 6-9 6-5 3-4 7-4h2v-2l17-8 37-12 15-8 4-3 3-6v-9l-3-7-7-6-10-4-6-1h-12l-13 4-4 2 1 4 4 6v13l-5 9-7 5-3 1h-15l-8-4-4-6-2-7v-10l4-11 4-6 5-4 1-2h3v-2h3v-2l14-7 14-4z" fill="#FBC11B"/>
<path transform="translate(896,264)" d="m0 0 8 4v-4l5 2 9 8 13 18 9 16 6 14 5 16 1 6v17l-1 6-2-1-2-16-15 1-10 23-12 29-1 8 4 36 12 2h2l-1 3h-2v2l-13-1-16 10-16 12-11 8-14 11-7 7-8 5h-2l1-4 13-13-1-4-14-13-11-9-3-2h-62l-5 5-10 11-4 4 1 4 3 3-1 2-6-1-13-11-5-4-4-5-11-9-4-3v-2l-5-2-1-1h-9l-2-3 8-1-1-11-3-12-5-26h-2l-11-29-6-16-2-1v-12l3-13 3-6 7-2 9-2-4 11-9 15-2 4 2 9 14 37 2 3v3l25 1 16 1 3-2-1 8 7 12v2h3l12 21 6 11 64 1 2-5 9-15 12-19 5-8-1-5-4-6-3-7-2-3v-3l-2-1h3l1 4 4 1 7 11 1 3h49l5-8 15-37 2-5-1-7-5-9-17-28-6-9v-2l-52 2-3 4-3 8h-2l-3 10-9 21-2 6 1 8-5-2-10-2-2-7-16-4-19-3h-9l-2 2-2 8-2-2-13-40-3-10 4-5 5-3 8-2 2 4 16 2 38 1 7-1 4-8h5l12 8h37l16-1v-23z" fill="#070405"/>
<path transform="translate(505,488)" d="m0 0h89l1 1v17l-6 2-13 2-6 3-2 2v7l3 9 4 9 8 22 4 12 2 3 8 24 2 3 2 6 3 8 4 10 1 1 5-14 2-2 3-11 4-9 5-15 4-9 5-15 4-10 5-14 2-4 1-13-14-3-14-2v-20h43l24 10 12 6v2l-16 6-7 6-12 30-5 15-4 8-5 16-5 12-7 20-5 12-4 10-4 9-3 7-11 25-12 23-10 13-9 9-14 8-5 1h-21l-11-3-9-6-7-11-1-3v-14l5-10 7-6 6-3h11l10 5 4 5 3 6v11l-4 5v3l7-1 8-6 6-6 1-3h2v-3l2-1 5-13 3-9v-11l-6-12-1-3h-2l-4-5-3-6-2-6-5-13-5-10-3-9v-4h-2l-9-21-1-7h-2l-3-8-3-7-3-12h-2l-7-17-3-7-5-4-12-3-1-1z" fill="#FBC11B"/>
<path transform="translate(367,99)" d="m0 0 7 2 16 12 5 4-1 5-9 12-7 15-6 17-3 19-4 75-3 24-5 19-5 12-7 10h-10l-26-6-18-6-16-8-16-10-2-2v-8l7-26 9-25 14-30 10-18 10-16 9-12 10-13 9-11 11-13 7-8z" fill="#B33001"/>
<path transform="translate(765,696)" d="m0 0h13l6 4 3 3 1 9-3 7-2 7 1-1 11-2 4-9 5-4 15-2h8l1 2-4 14 20 1-4 19-2 3-18 2-3 9-4 20v1h13l3 4 1 4v11l-5 5-9 3h-13l-10-5-6-7-2-6v-15l5-19 1-7h-11l2-9 2-8v-2h-2l-2 15-6 27-7 32-1 2-4 1h-23v-7l7-32 5-23 5-18 6-2-2-4-4-7-3 3-16 38-14 31-6 14-3 6-4 1h-24l-2-3-1-42-3 3-14 29-5 10-4 3h-24l-3-3-1-57v-43l26-1 2 5-1 45 3-3 8-16 14-29 2-2h20l2 2 1 10 1 27 1 8 3-3 16-36 3-7 3-1h26z" fill="#CC4B1D"/>
<path transform="translate(400,125)" d="m0 0h4l7 8 13 18 8 13 9 17 8 21 6 20 2 14v29l-3 17-6 8-13 10-17 10-16 7-26 7-17 2h-3l1-6 5-8 4-13 3-17 1-16 2-49 2-27 5-25 5-16 8-16z" fill="#F04401"/>
<path transform="translate(335,83)" d="m0 0 7 1 12 5 6 4-1 5-4 2-2 4-9 9-9 11-8 9-11 14-8 11-13 20-10 17-11 20-13 29-5 19-5 23-4-2-12-15-11-18-6-15-6-20-2-11-1-11v-24l3-15 5-15 4-6 6-5 12-6 18-5 31-7 16-5 14-7 8-6 7-7z" fill="#B33001"/>
<path transform="translate(262,400)" d="m0 0h25l5 6 2 13v206h2v3l5 2 17 3v19l-43 1h-37l-6-1-1-3v-13l2-4 11-2 9-5 3-5v-177l-1-17-5-1-20-1-1-6v-13l1-1 26-2h6z" fill="#FBC11B"/>
<path transform="translate(761,352)" d="m0 0h15l41 2 4 4 11 18 19 29-1 5-11 17-17 28h-64l-24-42-3-5 1-6 13-23 14-24z" fill="#D1D2D2"/>
<path transform="translate(871,297)" d="m0 0h25l13 21 11 18 6 11-1 7-11 28-8 18-3 3h-47l-5-5-10-16-14-22-4-6v-7l13-33 5-13 3-3z" fill="#D1D2D2"/>
<path transform="translate(911,792)" d="m0 0h26v50h55l1-50h27v24l-1 108h-25l-1-1-1-58-54-1v59l-1 1h-26z" fill="#FBC11B"/>
<path transform="translate(1292,440)" d="m0 0h27l23 4 19 6 15 7 14 8 12 9 10 9 9 9 3 5-4-1 1 5 11 14 8 14 6 16 5 21 1 7v32l-3 12-5 15v2h-2l-1 5h-2l-1 5-6 11h-2l-2 5-4 5-3 3-3 4-5 5-3 2-3 4-5 2-6 2-10 5-9 3-28-1-15-4-26-9-21-9-12-5-15-7-12-5-13-6-25-10-8-2h-9l-2-1h-7l-3 1h-6l-3 1-6-16v-4l9-4 14-2h14v2l9 2 24 11 15 8 16 8 34 18 24 11 20 8 10 3 7 1h18l15-4 13-8 14-14 10-15 6-10 8-22 2-17v-11l-2-17-6-22-5-13-6-10-5-5-2-1-2-3-2-2v-4h-3l-4-5-17-11-17-9-20-8-19-7-16-3-23-3-14-1h-38l-2-2 19-9 9-3 8-4z" fill="#DBDDDC"/>
<path transform="translate(1257,824)" d="m0 0h28l3 1v2l8 1 11 9 3 5 2 1 6 15 1 5v23l-3 11-8 12-10 9-12 5-4 1h-24l-13-5-11-9-6-10-2-3-1-5v-7h-2v-24l4-13 1-2h2l1-4 6-7h2v-2l4-1v-2l8-4z" fill="#FCC21B"/>
<path transform="translate(99,428)" d="m0 0h26l11 1 16 6 9 6 5 6 3 3 3 5 4 14 1 8v13l-5 19-5 10-5 5-12 9-11 4-20 3h-21v-111z" fill="#222029"/>
<path transform="translate(698,299)" d="m0 0h40l3 4 14 41 1 7-6 11-9 17-12 21-4 2-37-3-4-5-11-29-5-14 1-5 9-16 10-17 7-12z" fill="#D1D2D2"/>
<path transform="translate(1077,824)" d="m0 0h25l7 2 8 4 5 3 6 10 3 7 2 8v21l-1 1h-62l2 9 5 8 6 4 3 1h11l9-4 4-3 1-3h9l8 6 3 2v5l-9 10-10 6-6 3h-27l-14-5-10-8-6-9-4-8-2-8v-26l3-9 2-2 2-5 10-11 7-5z" fill="#FCC21B"/>
<path transform="translate(426,116)" d="m0 0h19l12 3 12 6 10 8 6 7 5 10 3 13 2 16v13l-3 23-5 17-8 18-10 17-3 5h-2l-1-31-2-17-3-14-9-27-12-25-11-17-9-11-7-8 3-3z" fill="#EF4401"/>
<path transform="translate(858,696)" d="m0 0h22l2 1-2 11-4 18 10-2h13l10 5 6 8 1 3v11l-4 22-6 26-3 5-7 1h-17l-1-1v-8l9-37 1-10h-9l-6 3-5 13-7 33-2 6-5 1h-20l-2-1 1-10 9-41 10-45 3-10z" fill="#302B2F"/>
<path transform="translate(687,707)" d="m0 0h10l3 2 3 37 1 25 2 1 9-20 17-39 3-5h14l2 1-2 5-5 8-10 24-8 19-6 13-9 20-4 2h-12l-4-1-1-2-3-48v-8l-3 1-10 21-7 14-5 12-6 9-3 2h-14l-3-2-1-44v-46h15l1 1 1 15v48l3-1 12-25 9-20 8-17z" fill="#302B2F"/>
<path transform="translate(335,83)" d="m0 0 7 1 12 5 6 4-1 5-4 2-2 4-9 9-9 11-8 9-11 14-4 5-5 5-3 2-3-2-1-3-16-4-17-1-21 4-13 4-11 6-9 6h-1v-9l6-18 4-5 7-2 3-3 2-5 12-5 31-7h3v-2l22-6 16-8 8-6 7-7z" fill="#EE4401"/>
<path transform="translate(824,284)" d="m0 0h5l12 8 1 7-3 10-1 2h-2l-3 10-9 21-2 6 1 8-5-2-10-2-2-7-16-4-19-3h-9l-2 2-2 8-2-2-13-40-3-10 4-5 5-3 8-2 2 4 16 2 38 1 7-1z" fill="#030203"/>
<path transform="translate(386,145)" d="m0 0 1 4-4 11-4 14-2 18-1 15 6 2 9 12 9 15 8 16 5 13 5 16 3 12 1 12 3 1-15 8-18 6-16 4-17 2h-3l1-6 5-8 4-13 3-17 1-16 2-49 2-27 5-25 5-16z" fill="#CB3401"/>
<path transform="translate(821,231)" d="m0 0h8l21 5 16 6 11 7 13 10 4 4 1 6v22l-1 1-16 1h-37l-25-16-17-11-3-3 3-22 2-5 15-4z" fill="#D0D1D1"/>
<path transform="translate(760,460)" d="m0 0h62l10 8 10 9 8 7 2 2-1 4-21 21-12 2h-19l-18-2-10-2-6-4-11-9-14-12 1-4 5-5 12-14z" fill="#B0B2B4"/>
<path transform="translate(682,318)" d="m0 0 2 1-4 10-9 15-2 4 2 9 14 37 2 3v3l25 1 16 1 3-2-1 8 7 12v2h3l12 21 5 12 2 3-7 8-8 8-5 7 1 4 5 3-1 2-6-1-13-11-5-4-4-5-11-9-4-3v-2l-5-2-1-1h-9l-2-3 8-1-1-11-3-12-5-26h-2l-11-29-6-16-2-1v-12l3-13 3-6 7-2z" fill="#040304"/>
<path transform="translate(760,700)" d="m0 0 1 2-1 2 7-3 7-1 6 3 2 2v9l-4 5-2 1h-6l-8-5-1-1v5l-3-3-3-4-6 12-12 29-14 31-6 14-3 6-4 1h-24l-2-3-1-42-3 3-14 29-5 10-4 3h-24l-3-3-1-57v-43l26-1 2 5-1 45 3-3 8-16 14-29 2-2h20l2 2 1 10 1 27 1 8 3-3 16-36 3-7 3-1h26zm-73 7-4 4-13 28-11 24-4 8-3 1v-48l-1-15-1-1h-15v46l1 44 3 2h14l5-4 8-16 7-16 11-22 3-1 1 23 2 33 1 2 4 1h12l4-2 11-24 7-16 10-24 7-16 5-7v-2l-2-1h-14l-8 16-12 28-9 20-2-1-1-25-3-37-3-2z" fill="#CB4A1C"/>
<path transform="translate(778,232)" d="m0 0h10l7 4-1 12-2 13-5 5-13 8-15 9-16 10-11 1h-34l-1-5 2-13 12-12 15-11 15-9 21-8z" fill="#D0D1D1"/>
<path transform="translate(1189,612)" d="m0 0h14v2l9 2 24 11 15 8 16 8 34 18 5 3 1 4 5 1 2 1v2l9 2 2 3 8 3 1 1 9 1 6 2v2l9-1v2l10 2 2 2-1 2-8 1h-12l-15-4-26-9-21-9-12-5-15-7-12-5-13-6-25-10-8-2h-9l-2-1h-7l-3 1h-6l-3 1-6-16v-4l9-4z" fill="#E2E4E3"/>
<path transform="translate(367,99)" d="m0 0 7 2 16 12 5 4-1 5-9 12-7 15-6 17-3 19-3 3-5-1-8-5-3-3-10-6v-2l-5-1-6-3v-2l-5-1-1-7h2l-1-3 9-18 13-15 7-8z" fill="#EF4401"/>
<path transform="translate(1153,824)" d="m0 0h25v7l-1 4 5-5h2l2-4 3-2h24l1 1-1 11-2 9-2 2-7-1h-8l-8 4-5 6-2 8-1 60h-25z" fill="#FCC31B"/>
<path transform="translate(437,563)" d="m0 0h4v28l-2 14-3 8-3 5-7 8-16 8-7 2h-10l-10-6-5-10-1-4v-7l4-13 7-9 9-7 13-6z" fill="#222029"/>
<path transform="translate(896,264)" d="m0 0 8 4v-4l5 2 9 8 13 18 9 16 6 14 5 16 1 6v17l-1 6-2-1-2-16-15 1-2 4-3 2-1 2-1-4v-8l-6-11-17-28-6-9v-2l-52 2-3 2v-8l37-1 16-1v-23z" fill="#050304"/>
<path transform="translate(755,362)" d="m0 0 1 3-10 19-7 11-5 9v5l5 8 7 11v2h6l10-4 21-4 42-6 10-1 8-4h3l2-5 2-3 1 5-10 16-8 13-11 18h-64l-24-42-3-5 1-6 13-23z" fill="#B0B2B4"/>
<path transform="translate(429,69)" d="m0 0 7 1 14 11 8 7 11 15 9 15-1 3-7-3-11-5-12-3h-26l-15 4h-5l-9-8-15-11v-4l8-6 16-9 17-5z" fill="#ED4301"/>
<path transform="translate(941,349)" d="m0 0h6l2 7v30l-3 17-5 16-8 18-8 13-12-2-1-1-4-36 1-8 18-43 5-10z" fill="#B0B2B4"/>
<path transform="translate(858,696)" d="m0 0h22l2 1-2 11-4 18 10-2h13l10 5 6 8 1 3v11l-4 22-6 26-3 5-7 1h-17l-1-1v-8l9-37 1-10h-9l-6 3-5 13-7 33-2 6-5 1h-20l-2-1 1-10 9-41 10-45 3-10zm3 4-3 5-5 25-7 34-7 33 1 3h13l2-1 6-28 5-17 4-6 5-3 12-1 6 3 1 5-6 29-4 18 1 1h14l3-7 3-15 5-21v-18l-4-6-6-4-4-1h-7l-13 4-5 4-3 1 4-13 1-10 2-5v-8l-1-1z" fill="#D25324"/>
<path transform="translate(273,70)" d="m0 0h14l27 4 13 4 1 4-7 7-13 8-23 7-32 7-13 4-11 5h-3l2-6 8-11 7-9 9-10 15-12z" fill="#EB4301"/>
<path transform="translate(275,114)" d="m0 0h5l-3 2-22 5-15 4-6 3-2 5h-2l-2 4-7 2-4 8-4 13v8l16-10 6-3 25-6 11-1 13 1 16 4 1 4 4 1 5-6v3l-13 20h-3v2l-5-2-6-3h-21l-16 2-10 3-9 2-11 6-5-1-1-7v-14l6-21 5-8 6-5 12-6 18-5z" fill="#CB3401"/>
<path transform="translate(811,712)" d="m0 0h10l-3 15 19 1 1 5-5 10-18 2-2 5-3 15-2 6v12l8 1h8l3 6-2 5-6 4-5 1h-8l-7-3-6-5-2-4v-13l7-31h-8l-2-1v-10l3-5 10-1 2-9 5-5z" fill="#302B2F"/>
<path transform="translate(1268,845)" d="m0 0h8l10 5 4 7 3 11v13l-2 8-3 6-6 5-7 3h-9l-5-1v-2l-4-2-6-8-2-13v-10l3-11 4-6 7-4z" fill="#232129"/>
<path transform="translate(400,125)" d="m0 0h4l7 8 13 18 8 13 9 17 8 21 6 20 2 14v29l-3 17-6 8-4 2 5-8v-5l-4-8-3-19-1-12-3-17-2-11-8-26-3-6v-5l-2-1-5-11-5-10-4-7-7-10-1-3-5-1-4 3 2-4z" fill="#CB3401"/>
<path transform="translate(331,139)" d="m0 0 1 2-5 8-2 6v2h-2l1 7 5 1v2l6 2 5 2v2l5 2 8 5v2l6 2 3 3 4 1 1-2-1 23-1 5-1 17-1 2-5-2-6-9-9-11v-2h-2l-5-5-9-8v-2l-5-2-9-7-5-4-1-5 1-5 9-12 2-5 11-14z" fill="#CB3401"/>
<path transform="translate(355,44)" d="m0 0h12l20 3 18 6 16 7-1 3-16 5-13 6-8 4h-2v2h-3v2l-8 6-5-1-19-9-3-3 2-8 9-22z" fill="#ED4301"/>
<path transform="translate(635,708)" d="m0 0h15l1 1 1 15v48l3-1 3-4v6l2-1 1 1 5-5 4-3 4-7 2-5 3-3-1 5-8 16-8 18-6 9-3 2h-14l-3-2-1-44z" fill="#302B2F"/>
<path transform="translate(696,289)" d="m0 0 2 4h45l-2 4 8 24 8 25 3-7 2-2h10l23 4 11 3 2 7 12 3 2 1-1-7 10-25 5-12 1 3-13 33v7l11 17 9 14v2h-2l-2-3 5 9-1 3-11-17-14-22v-2l-28-1-15-1h-15l-14 25-10 17-5 9 1 6 6 10v2h-2l-8-14 1-7-2 2-16-1-25-2 1-2 38 3 4-4 13-24 11-19 1-6-12-36-4-11-1-1h-41z" fill="#382C2D"/>
<path transform="translate(1292,440)" d="m0 0h27l23 4 19 6 15 7 14 8 12 9 10 9 9 9 3 5-4-1-2 4-12-12-14-10-18-10-19-7-28-8-17-4h-39l-3-2 5-2 8-4z" fill="#CBDA38"/>
<path transform="translate(1412,501)" d="m0 0 4 2 10 8h3l9 14 5 11 6 21 3 16v32l-3 12-5 15v2h-2l-1 5h-2l-1 5-6 11h-2l-2 5-4 5-3 3-3 4-5 5-3 2-3 4-5 2-6 2-10 5-9 3-16-1v-1h8l-1-3-10-3v-2l-9 1v-2l-6-1-9-1-2-2-8-3-1-3-9-2v-2l-7-2-1-4 6 2 20 9 16 6 14 3h18l15-4 13-8 14-14 10-15 6-10 8-22 2-17v-11l-2-17-6-22-5-13-6-10-5-5-2-1-2-3-2-2v-4h-3z" fill="#C9CACB"/>
<path transform="translate(819,708)" d="m0 0h8l1 2-4 14 20 1-4 19-2 3-18 2-3 9-4 20v1h13l3 4 1 4v11l-5 5-9 3h-13l-10-5-6-7-2-6v-15l5-19 1-7h-10v-2l17-1-2 12-4 19v13l4 6 6 4 4 1h8l7-2 5-5-2-8-13 1-4-2v-12l4-15 2-10 2-2 18-2 4-9v-4l-19-1-1-3 2-6h2l1-7-12-1 3-2z" fill="#CB4A1C"/>
<path transform="translate(911,452)" d="m0 0 10 2-1 4-12 13-11 10-15 11-19 10-14 5-9 1 2-4 13-12 14-11 18-13 17-12z" fill="#B0B2B4"/>
<path transform="translate(763,727)" d="m0 0 13 1 1 4-8 32-5 25-2 9-4 2h-10l-2-1 1-9 13-60z" fill="#20212A"/>
<path transform="translate(632,710)" d="m0 0h1l1 9 1 52v29l18-1 5-5 7-14 7-16 8-16 4-7h3l2 23 2 35 14 1 1 3-7 1h-14l-1-4-1-40-3 3-14 29-5 10-4 3h-24l-1-1-1-42v-51z" fill="#CF4F21"/>
<path transform="translate(663,355)" d="m0 0 3 3 12 30 6 18 5 30 1 11-4 1-4-5-8-16-5-13-4-15-2-12z" fill="#CDCECF"/>
<path transform="translate(760,700)" d="m0 0 1 2-1 2 7-3 7-1 6 3 2 2v9l-4 5-2 1h-6l-8-5-1-1v5l-3-3-3-4-6 12-12 29-14 31-6 14-3 6-4 1h-24v-1l19-2v-2l6-2 2-6 11-26 6-13 8-19 7-16 6-9-2-1 5-1 3-5z" fill="#CA481A"/>
<path transform="translate(336,44)" d="m0 0h12l-1 5-11 23-7-1-22-5-22-3 1-3 25-11 18-4z" fill="#E84201"/>
<path transform="translate(889,728)" d="m0 0h7l7 3 5 4 2 4v18l-7 29-2 11-2 3h-14l-1-3 8-34h2v-4l2-1v-11l1 2h3v2l3 1v-2-7l-4-1-1-4v-5l-10-1-2-2h3z" fill="#302B2F"/>
<path transform="translate(371,238)" d="m0 0h1l2 34 2 2 2 7 5 9 3 11 1 5-3 10 1 3 3 2-12 3-17 2h-3l1-6 5-8 4-13 3-17 1-16z" fill="#B33001"/>
<path transform="translate(735,708)" d="m0 0h14l2 1-2 5-5 8-10 24-6 14-3 3-3 6-8 6-4-4 1-7 7-14 3-12 12-27z" fill="#20212A"/>
<path transform="translate(881,743)" d="m0 0 9 1 5 4-1 9-8 36-1 6 14 1v1l-16 1-1 1 14 1v1h-17l-1-1v-8l9-37 1-10h-9l-6 3-5 13-7 33-2 6-5 1h-20v-1l12-1v-3l9-1 2-14 5-22 4-11 6-7z" fill="#CA491B"/>
<path transform="translate(858,696)" d="m0 0h22l2 1-2 11-4 5 1-12 1-2h-17l-4 16-5 25-7 33-5 24v2l7 2-1 3h-14l1-10 9-41 10-45 3-10z" fill="#CC4B1D"/>
<path transform="translate(1423,495)" d="m0 0 4 2 6 7 5 8v2h2l8 15 3 10 1 10 2 8v11l1 8v26l-1 6-1 16-5 15-2 4h-2l-1 2-1-11 3-8 3-9 3-12v-32l-4-21-7-21-7-13-9-12-5-6 1-4z" fill="#3E2C2B"/>
<path transform="translate(653,701)" d="m0 0 3 1 1 4-1 45 6-6-1 5-1 2h-3v2h-2l-2 18h-1l-1-48-1-15-15-1 2 90 2 2h-4l-1-29-1-52-1-8v93l-2-2-1-57v-43z" fill="#B33001"/>
<path transform="translate(696,289)" d="m0 0 2 4h45l-2 4 8 24 8 25 2-2v5h2l-2 8-14 24-10 18-3 5 1 6 6 10v2h-2l-8-14 1-7-2 2-16-1-25-2 1-2 38 3 4-4 13-24 11-19 1-6-12-36-4-11-1-1h-41z" fill="#402724"/>
<path transform="translate(436,147)" d="m0 0 6 2 9 9 9 16 5 14 2 7v19l-2 8-3-3-3-10-2-10-3-7-1-6-4-12-9-16-4-7z" fill="#E07A2F"/>
<path transform="translate(791,261)" d="m0 0 1 3 5-1 9 7 13 8-1 2h-2l-1 3h-46l-1-2 1-2-5 1 5-4 15-9 6-4z" fill="#342C2E"/>
<path transform="translate(1086,845)" d="m0 0h9l8 4 5 8 1 6-1 1h-39v-5l7-9 6-4z" fill="#252129"/>
<path transform="translate(1189,612)" d="m0 0h14v2l9 2 24 11 15 8 16 8 15 8-4 2-22-11-5-1-15-7-12-6-2-2-11-3-5-2-7-2-31 1-1 4-1-6 9-4z" fill="#CDCECE"/>
<path transform="translate(387,126)" d="m0 0h2l-2 5-8 16-7 19-3 19-3-1-3-16v-12l2-9 5-10 7-7z" fill="#DD742B"/>
<path transform="translate(691,453)" d="m0 0 4 1 16 12 12 10 9 7 11 9 8 7 2 4-5-2-16-8-12-8-11-9-14-14-4-6z" fill="#B0B2B4"/>
<path transform="translate(846,415)" d="m0 0 1 2-10 17-11 18-3 4 1 5h-64l-5 5-10 11-4 4 1 4 2 3-4-2-2-2 1-4 7-9 11-11 1-3-5-8 1-3 4 8 64 1 2-5 9-15 12-19z" fill="#3C2524"/>
<path transform="translate(1412,501)" d="m0 0 4 2 10 8h3l9 14 5 11 6 21 3 16v32l-3 11-2-4 1-18v-11l-2-17-6-22-5-13-6-10-5-5-2-1-2-3-2-2v-4h-3z" fill="#D6D6C5"/>
<path transform="translate(794,744)" d="m0 0h4l-2 12-4 19v13l4 6 9 6 17 1-2 2-6 2h-14l-9-6-4-5-2-6v-15l5-19 1-7h-10v-2z" fill="#CE4E1F"/>
<path transform="translate(678,725)" d="m0 0h1l2 12 1 5-4 10-2 2-3 7-4 6-7 6-4 1-1-2 2-9 8-17 9-20z" fill="#21212A"/>
<path transform="translate(796,759)" d="m0 0 1 4 3 1 2 4 5-1-2 14-5-4-1-3-2 4 3 6 5 5 3 1 7-1 3-3 4-1v2h2v6l-6 4-10 2-7-3-4-3v-2h-2v-2l-4-1v-13l2-6 3-3-1-4z" fill="#1F202A"/>
<path transform="translate(849,766)" d="m0 0 5 2v2l5 1-2 13-1 12-1 3-2 1h-13l-1-3 5-24 3-4 2-1z" fill="#21212A"/>
<path transform="translate(426,116)" d="m0 0h19l12 3 12 6 10 8 6 7 5 10 3 13 2 16v13l-3 23-3 11-1-4 3-16 1-12v-18l-3-21-4-11-1-3-3-1v-2l-4-1-1-2-6-2-5-3-1-2-13-2-2-1-10-1v-2h-2l1-4h-18v-1z" fill="#C63301"/>
<path transform="translate(1446,611)" d="m0 0 2 1 1 5-5 15v2h-2l-1 5h-2l-1 5-6 11h-2l-2 5-4 5-3 3-3 4-5 5-3 2-3 4-5 2-6 1v-3l2-2h3l1-3 20-20 10-15 6-10z" fill="#B0B1B3"/>
<path transform="translate(1203,613)" d="m0 0 7 1 16 6 36 18 19 10 16 8 7 4 7 3 15 7 18 7 8 3 15 2h16l13-4 4-1-3 3-12 4-5 1h-18l-14-3-16-6-20-9-23-11-22-12-39-20-19-8-6-2z" fill="#702D18"/>
<path transform="translate(889,728)" d="m0 0h7l7 3 5 4 1 2v18l-4 15-1-2h-2l-2-2-4 1-1 2v-3h-2l1-7 2-1v-11l1 2h3v2l3 1v-2-7l-4-1-1-4v-5l-10-1-2-2h3z" fill="#20202A"/>
<path transform="translate(1427,519)" d="m0 0 5 5 7 14 5 17 4 17 1 11v11l-2 17-8 22-13 21-8 9v-3l8-10 11-21 5-14 2-12v-31l-5-24-6-16-6-11z" fill="#582C21"/>
<path transform="translate(682,318)" d="m0 0 2 1-4 10-9 15-2 4 1 8-4 4-2-6-2-1v-12l3-13 3-6 7-2z" fill="#070506"/>
<path transform="translate(762,337)" d="m0 0h10l23 4 11 3 2 7 3 2-9-1-21-6-18-3-4 1 1-5z" fill="#1F202A"/>
<path transform="translate(884,729)" d="m0 0h5l-1 2 10 1 1 1v9l4 1 1 8-1 5-2 1 1-5-2-1v-2h-3v9l-3 1-1 4 1-15-4-3-9-1h-6l2-2 10-1-1-3-11-3 3-4z" fill="#312C30"/>
<path transform="translate(1441,637)" d="m0 0h2v9l-7 14-12 17-4 2h-2l-4 2 1-5 3-6h2l2-5 5-5 3-5h2l1-4 5-8 1-4h2z" fill="#C5C131"/>
<path transform="translate(769,700)" d="m0 0 8 1 5 4v9l-4 5-2 1h-6l-7-6-1-6 5-7z" fill="#21212A"/>
<path transform="translate(895,284)" d="m0 0h1v8l-1 5-51 2-3 2v-8l37-1 16-1z" fill="#482A24"/>
<path transform="translate(432,166)" d="m0 0 4 5 7 15 8 22 4 14 2 14v29l-3 17-3 3 2-11 1-12v-24l-4-20-7-23-6-16-5-10z" fill="#B33001"/>
<path transform="translate(836,311)" d="m0 0 1 3-13 33v7l11 17 9 14v2h-2l-2-3 5 9-1 3-11-17-15-24h3v-2l1-8 9-22z" fill="#382424"/>
<path transform="translate(798,773)" d="m0 0 2 1 4 6 2-5h1l1 8 8 1h8l3 6-2 5-6 4-5 1h-8l-7-3-6-5-1-4 3 1v2h2l4 4 7 3 10-2 5-3 1-6h-2v-2l-6 2-1 3-8 1-5-3-5-7-1-5z" fill="#312C30"/>
<path transform="translate(337,107)" d="m0 0 4 1-1 4-6 5h-2l-2 4-5 5-8 9-6 8h-4l2-6 7-10 5-7h2l2-4 9-8z" fill="#E07C2E"/>
<path transform="translate(307,89)" d="m0 0h6l2 2-5 5-18 6-12 3h-9l5-4 4-3z" fill="#DC6F26"/>
<path transform="translate(696,289)" d="m0 0 2 4h45l-2 4v6l-3-3h-41z" fill="#4A2B25"/>
<path transform="translate(920,362)" d="m0 0 1 3-13 31-4 6-1 1h-39v-1l19-1 14-3v-2l4-1 1-2h2l2-6 4-5 2-5z" fill="#B0B2B4"/>
<path transform="translate(1313,449)" d="m0 0h9l23 5 18 6 13 5 15 9 8 6 7 6h-3l-11-8-18-10-19-7-28-8-14-3z" fill="#7B2E14"/>
<path transform="translate(429,69)" d="m0 0 7 1 1 2h-7l-12 3-6 4-11 3-6 2-7 3-3 3-5 3 1 4-4-2v-4l8-6 16-9 17-5z" fill="#C73401"/>
<path transform="translate(908,787)" d="m0 0 2 4 1 1v132l-2-2v-120h-4l2-11z" fill="#312C30"/>
<path transform="translate(763,727)" d="m0 0 13 1 1 4-8 32-5 25-2 4 1-14 4-14-3-1-2-4 1-5 6-1 3-10h-2l-1-6 4-4 1-4h-8l-4 1-2 2 1-5z" fill="#302B2F"/>
<path transform="translate(1284,448)" d="m0 0h26l32 8 27 9 5 2-3 2-6-1-4-2-10-3-4-2-7-2-4-2-8-1-2-2-32-4-10-1z" fill="#BFC1C2"/>
<path transform="translate(653,701)" d="m0 0 3 1-1 50h-1l-1-12-1-32-1-1h-20l-1-4 1-1z" fill="#D7572A"/>
<path transform="translate(1453,600)" d="m0 0 2 2-1 6-1 16-5 15-2 4h-2l-1 2-1-11 3-8 3-9 4-16z" fill="#3F2D2B"/>
<path transform="translate(275,114)" d="m0 0h5l-3 2-22 5-15 4-6 3-2 5h-2l-2 4-7 2-4 8-4 13-1 7-2 1 1-9 5-17 5-8 6-5 12-6 18-5z" fill="#C03201"/>
<path transform="translate(443,85)" d="m0 0 5 1 6 6v2l7 2 1 3 4 2v2h-2l-1 3-6-1-7-5-6-8z" fill="#E07D2F"/>
<path transform="translate(476,525)" d="m0 0h1l2 6 1 27v73l-2-2-1-82z" fill="#352C2E"/>
<path transform="translate(1449,562)" d="m0 0 2 4 1 7v32l-3 11-2-4 1-18v-11l-1-18z" fill="#CCD749"/>
<path transform="translate(405,64)" d="m0 0h2v3l-15 6-9 5h-2v2h-3v2l-7 5-3-1 8-10 9-6 13-5z" fill="#DF7D29"/>
<path transform="translate(819,708)" d="m0 0h8l1 2-4 14 15 1v3h-21l-1-3 2-6h2l1-7-12-1 3-2z" fill="#CE4E1F"/>
<path transform="translate(698,299)" d="m0 0h40l3 4 14 41-1 4-6-15-10-30-1-1h-40l-3 2 2-4z" fill="#B0B2B4"/>
<path transform="translate(925,352)" d="m0 0 1 3v1l3-1-3 10-12 28-1-4-3 2 3-9z" fill="#261E22"/>
<path transform="translate(700,464)" d="m0 0 4 2 10 8v2l5 2 8 6 5 4 5 1 4 5-1 2-10-4-14-10-11-12z" fill="#CACBCC"/>
<path transform="translate(861,699)" d="m0 0h17l-1 11 2-1-2 12-1 5 3 1-3 1-1 2h-3v2l4 1-5 4h-3l3-13 1-10 2-5v-8l-13-1z" fill="#CE541F"/>
<path transform="translate(1446,611)" d="m0 0 2 1 1 5-5 15v2h-2l-1 5h-2l-1 5-3 5h-3l-1-5 7-11z" fill="#D3D5D5"/>
<path transform="translate(432,148)" d="m0 0 4 4 3 4v2h2l6 11 4 8 4 13 2 7 2 4 1 12-2-3-9-27-12-25-5-8z" fill="#D43A01"/>
<path transform="translate(1306,664)" d="m0 0 6 2 20 9 16 6 7 2-4 1h-6l-2-1-9-1-2-2-8-3-1-3-9-2v-2l-7-2z" fill="#C8C9CA"/>
<path transform="translate(809,709)" d="m0 0 4 1 10 1-2 8h-1v-6h-9l-6 3-4 11-10 2-3 4v-5l6-2-2-2 4-2 3-8 5-4z" fill="#C44314"/>
<path transform="translate(688,285)" d="m0 0h4v7l-3 7-2 3-4 1-3 3-3-2 2-7 6-8z" fill="#312C30"/>
<path transform="translate(894,269)" d="m0 0h1v22l-1 1-16 1h-37l-8-5 3-1 6 3h24l28-1z" fill="#B0B2B4"/>
<path transform="translate(1203,613)" d="m0 0 7 1 16 6 36 18 19 10-3 2-23-12-19-10-17-8-16-6z" fill="#922F0C"/>
<path transform="translate(474,130)" d="m0 0 4 2 7 8 5 10 3 13 2 16v13l-3 23-3 11-1-4 3-16 1-12v-18l-3-21-4-11-1-3-3-1-3-5z" fill="#BB3101"/>
<path transform="translate(741,299)" d="m0 0 2 3 13 41 1 3 2-2v5h2l-2 7-4 4-4 6-1-3 5-12-2-9-12-36z" fill="#402725"/>
<path transform="translate(656,702)" d="m0 0 2 1v35h5l2-4 1 3-8 14h-2z" fill="#312C30"/>
<path transform="translate(745,488)" d="m0 0 8 6 9 8 12 8-7-1-9-8-6-3 5 6v2l-9-3-8-4 1-2 11 5-5-6-6-5z" fill="#3C2524"/>
<path transform="translate(655,704)" d="m0 0 2 2-1 45 6-6-1 5-1 2h-3v2h-2l-2 18h-1v-32h2z" fill="#B43102"/>
<path transform="translate(1189,612)" d="m0 0h14v2l9 2 18 8-3 1-20-8-12-1h-12l-15 2 2-2 10-3z" fill="#B0B2B4"/>
<path transform="translate(662,745)" d="m0 0h2l-1 8-2 8-6 11h-2v-10l2-8h2v-2h3z" fill="#D45825"/>
<path transform="translate(757,356)" d="m0 0 2 1-14 24-2 2-1-3-5 9-2-1 14-26 3-3-1 5z" fill="#432723"/>
<path transform="translate(875,735)" d="m0 0 9 1 4 3v3l-11 1-10 4-1-4 5-4z" fill="#1F202A"/>
<path transform="translate(761,352)" d="m0 0h15l41 2 2 1-1 2-47-2-11-1z" fill="#B0B2B4"/>
<path transform="translate(905,732)" d="m0 0 4 2 3 6v12l-2 13-6 25-1 8-4 2 7-30 3-13v-18z" fill="#B33001"/>
<path transform="translate(871,297)" d="m0 0h25v2l-52 2-3 6-1-4 4-5z" fill="#B0B2B4"/>
<path transform="translate(858,696)" d="m0 0h22l2 1-2 11-4 5 1-12 1-2-21 1z" fill="#D46423"/>
<path transform="translate(1427,664)" d="m0 0 1 3v5l-6 7h-4l-4 2 1-5 3-6h2l2-5z" fill="#ECBE1F"/>
<path transform="translate(827,791)" d="m0 0 1 2-1 4h2l1-2-1 5-5 4-8 2h-13v-1l11-1 4-2-13-1-2-2h11l7-2 5-5z" fill="#C84719"/>
<path transform="translate(1313,449)" d="m0 0h9l23 5 15 5v2l-8-1-25-7-14-3z" fill="#5B2D20"/>
<path transform="translate(950,376)" d="m0 0h2v10l-1 9-2 6-2 10-4 7-1-4 5-21 2-16z" fill="#120E0F"/>
<path transform="translate(1443,611)" d="m0 0h1v9l-5 13-13 21-8 9v-3l8-10 11-21 5-14z" fill="#712D18"/>
<path transform="translate(821,779)" d="m0 0h5l3 4 1 4v8l-1 2h-2v-6l-3-5v-2l-13 1 1-4h9z" fill="#CF6628"/>
<path transform="translate(815,713)" d="m0 0 4 2-3 9-4-1v-2l-9 3v-6l6-3z" fill="#1F202A"/>
<path transform="translate(760,700)" d="m0 0 1 2-1 2 5-1-2 7 2 6-3-1-1-1v5l-3-3-3-4-2 1-2-4-2-1 5-1 3-5z" fill="#B33001"/>
<path transform="translate(1398,677)" d="m0 0 2 1-8 4-12 3h-18l-14-3v-2l-4-2 15 3 8 1h16l13-4z" fill="#A32F06"/>
<path transform="translate(886,724)" d="m0 0h13l3 1v2l-15 1-9 4h-6v-2h3l1-3 4-2z" fill="#D66A25"/>
<path transform="translate(889,783)" d="m0 0h3l2 4-1 7-2 4v1h-7l3-15z" fill="#22222B"/>
<path transform="translate(1420,496)" d="m0 0 6 2 7 10 1 4-3 3-11-14-1-3z" fill="#B33A04"/>
<path transform="translate(698,279)" d="m0 0h1v12l1 1 39-1 5-2 3 1-4 3-11 1h-34l-1-5z" fill="#B0B2B4"/>
<path transform="translate(763,727)" d="m0 0 13 1 1 4-5 20-2 2 2-10h-2l-1-6 4-4 1-4h-8l-4 1-2 2 1-5z" fill="#312C30"/>
<path transform="translate(682,402)" d="m0 0 2 4 5 30 1 11-3-3-3-17-2-19z" fill="#B0B2B4"/>
<path transform="translate(747,364)" d="m0 0 1 2-13 24-7 11-3 1-12-1v-1l14-1 8-16 7-12z" fill="#B0B2B4"/>
<path transform="translate(839,307)" d="m0 0 1 3-3 10-7 19-5 10v6l-2-1v-7l13-33z" fill="#B0B2B4"/>
<path transform="translate(842,294)" d="m0 0h39l-4 2-25 1-9 3-2 1z" fill="#232129"/>
<path transform="translate(1281,441)" d="m0 0 4 1-3 1 2 2 17 2v1l-17 1h-13l-3-2 5-2z" fill="#BD4404"/>
<path transform="translate(386,145)" d="m0 0 1 4-4 11-4 14-2 18h-2v7h-1v-9l5-25 5-16z" fill="#BD3201"/>
<path transform="translate(1284,448)" d="m0 0h26l24 6-4 1-18-3-28-3z" fill="#B0B2B4"/>
<path transform="translate(839,725)" d="m0 0h5l-3 14-2-4-3 8-1 1h-15v-1l13-1 4-9v-5z" fill="#D05E20"/>
<path transform="translate(1427,519)" d="m0 0 5 5 7 14 4 12-1 7-2-4-5-17-8-15z" fill="#6A2D1B"/>
<path transform="translate(846,415)" d="m0 0 1 2-10 17-11 18-4 4 1-4 13-22z" fill="#392627"/>
<path transform="translate(825,355)" d="m0 0 4 4 7 10 15 24-1 3-11-17-12-19z" fill="#B0B2B4"/>
<path transform="translate(1439,630)" d="m0 0 2 4 1 3-1 2h-2l-1 5-3 5h-3l-1-5 7-11z" fill="#C8C9C9"/>
<path transform="translate(1434,654)" d="m0 0 2 3-1 4-6 9-2-1v-4h-3l3-5 4-3h3z" fill="#D2CB2F"/>
<path transform="translate(917,372)" d="m0 0h2l1 7-6 14-1-4-3 2 3-9z" fill="#282025"/>
<path transform="translate(798,798)" d="m0 0 5 1 2 1 17 1-2 2-6 1h-12l-6-3-1-2z" fill="#DF7B2F"/>
<path transform="translate(757,460)" d="m0 0 3 1-5 5-10 11-4 4 1 4 2 3-4-2-2-2 1-4 7-9z" fill="#3C2726"/>
<path transform="translate(1279,649)" d="m0 0 6 1 19 10 5 2-4 2-25-13z" fill="#7A2E15"/>
<path transform="translate(879,249)" d="m0 0 5 1 6 3 1 2 6 3 2 4-10-3-9-7z" fill="#0D0808"/>
<path transform="translate(786,734)" d="m0 0h2v9l6 1v1l-11 1-2-1-1 2 2-9 2-2z" fill="#CB4A1C"/>
<path transform="translate(839,734)" d="m0 0h1v6h-2l-1 4-1-4zm-4 9m-17 1h17l2 2-21 1v-2z" fill="#DD712E"/>
<path transform="translate(782,728)" d="m0 0h2l1 4-5 15h11v7h-1v-6l-10 1-2 2 2-15z" fill="#312C30"/>
<path transform="translate(367,99)" d="m0 0 7 2 16 12 5 4-1 5-2 1v-5l-9-8-11-7-5-1-2-1z" fill="#BA3101"/>
<path transform="translate(765,696)" d="m0 0h7l1 3-9 5h-4l2-6z" fill="#D25524"/>
<path transform="translate(1412,501)" d="m0 0 4 2 8 7 4 5 3 5-1 2-5-6-3-1-2-3-2-2v-4h-3z" fill="#B0AFB1"/>
<path transform="translate(1446,623)" d="m0 0h1v15l-3 7h-1l-1-11 3-8z" fill="#B43201"/>
<path transform="translate(694,453)" d="m0 0 5 1 2 1v2l4 2 15 13h-3l-12-10-11-8z" fill="#472823"/>
<path transform="translate(861,699)" d="m0 0h17l-2 11-3 13h-1v-9l2-5v-8l-13-1z" fill="#B33001"/>
<path transform="translate(908,787)" d="m0 0 2 4 1 1v11l-3-2-3 1 2-11z" fill="#2F2B2F"/>
<path transform="translate(1349,460)" d="m0 0 7 2 11 2 7 3-3 2-6-1-4-2-10-3-2-1z" fill="#CACBCC"/>
<path transform="translate(476,525)" d="m0 0h1l2 6 1 22-1 5h-1l-2-26z" fill="#6F331E"/>
<path transform="translate(682,757)" d="m0 0 3 2v41h-1l-1-40h-2z" fill="#B33001"/>
<path transform="translate(1383,470)" d="m0 0 5 2 10 7 8 7h-3l-11-8-8-5z" fill="#912E0C"/>
<path transform="translate(1152,823)" d="m0 0h27l1 7h2l-2 4-3 1 1-11h-26z" fill="#312C30"/>
<path transform="translate(1442,552)" d="m0 0 2 3 3 11v5l-3 1-2-9z" fill="#652D1D"/>
<path transform="translate(259,78)" d="m0 0 2 1-20 20v-3l12-13z" fill="#CB3701"/>
<path transform="translate(784,725)" d="m0 0h10l3 2-9 1v6h-2l-2 4v-6h2v-5h-2z" fill="#DA692B"/>
<path transform="translate(1258,638)" d="m0 0 5 1 16 8 2 2-3 1-20-11z" fill="#8D2E0E"/>
<path transform="translate(1074,893)" d="m0 0 5 3 3 3 4 1h9l2 3h-11l-8-4-4-4z" fill="#442C29"/>
<path transform="translate(1282,652)" d="m0 0 6 2 17 9-4 1-7-3-3-1-1-2-5-2-3-2z" fill="#C4C6C7"/>
<path transform="translate(912,325)" d="m0 0 3 3 8 13 3 6v5l-2-4-12-21z" fill="#B0B2B4"/>
<path transform="translate(829,783)" d="m0 0 2 3 3 3-1 11h-4z" fill="#3C2C2B"/>
<path transform="translate(823,725)" d="m0 0h16v3h-12l-7-1z" fill="#DE752E"/>
<path transform="translate(719,743)" d="m0 0 1 3-5 13-5 8-1-2z" fill="#312C30"/>
<path transform="translate(819,719)" d="m0 0 2 4h2l1-4v5h7v1l-8 1 4 2h-9l-1-3z" fill="#C34113"/>
<path transform="translate(1432,638)" d="m0 0h1v5l-8 12-7 8v-3l8-10z" fill="#A72F05"/>
<path transform="translate(1328,673)" d="m0 0 9 1 7 3v2l4 2-9-2-11-5z" fill="#632D1D"/>
<path transform="translate(1290,438)" d="m0 0h18l3 2-23 1v-2z" fill="#662D1C"/>
<path transform="translate(429,69)" d="m0 0 7 1 1 2-18 1-9 1 3-2z" fill="#B83101"/>
<path transform="translate(1313,449)" d="m0 0h9l15 3-3 2-12-2-9-2z" fill="#AF2F02"/>
<path transform="translate(757,350)" d="m0 0 2 1-1 5-7 10-1-3 4-9z" fill="#110909"/>
<path transform="translate(452,188)" d="m0 0 3 4 3 7 2 10-1 4-7-22z" fill="#C43C0C"/>
<path transform="translate(693,708)" d="m0 0 5 1 1 1v10l-2-3-4-5z" fill="#1F202A"/>
<path transform="translate(1444,623)" d="m0 0h1v6l-1 5-4 2v-8l1-3z" fill="#D8DAD2"/>
<path transform="translate(740,497)" d="m0 0 9 4h2v-2l4 2 2 5-9-3-8-4z" fill="#3F2927"/>
<path transform="translate(923,365)" d="m0 0h2l-3 9-2 3-2-7 2-3z" fill="#302225"/>
<path transform="translate(394,582)" d="m0 0 2 1-11 11-3 5-2-1 7-10z" fill="#512A21"/>
<path transform="translate(878,709)" d="m0 0 1 3-3 14h-1v-7l-2 2 2-11z" fill="#CD4C1E"/>
<path transform="translate(420,147)" d="m0 0 4 4 8 13-1 2-3-3-3-6-5-7z" fill="#B33001"/>
<path transform="translate(767,766)" d="m0 0 1 4-5 23h-1l1-14z" fill="#312C30"/>
<path transform="translate(763,710)" d="m0 0 7 7h7l3-2-2 4-2 1h-6l-7-6z" fill="#312C30"/>
<path transform="translate(860,701)" d="m0 0h7l2 2-4 3h-6z" fill="#20212A"/>
<path transform="translate(685,394)" d="m0 0 3 1v2l24 2v1h-14l-10-1-3-3z" fill="#B0B2B4"/>
<path transform="translate(916,379)" d="m0 0 1 4-2 8-2 2v-4l-3 2 2-7 3-3z" fill="#241513"/>
<path transform="translate(405,128)" d="m0 0 7 6 8 11-1 2-11-13-3-4z" fill="#B33001"/>
<path transform="translate(754,340)" d="m0 0 2 3 1 3 2-2v5h2l-2 7-1-2v-3l-3 2z" fill="#2E2327"/>
<path transform="translate(1344,678)" d="m0 0 5 1 13 3-4 2-10-2v-2z" fill="#B33001"/>
<path transform="translate(1404,495)" d="m0 0 6 1 9 8h-3l-5-3-7-5z" fill="#C8C9CA"/>
<path transform="translate(350,55)" d="m0 0h1l-1 8-3 5-3 7-1-2 6-16z" fill="#BF3201"/>
<path transform="translate(813,709)" d="m0 0h13l-2 5-1-3h-13z" fill="#E07C2E"/>
<path transform="translate(1244,630)" d="m0 0 6 2 10 5-3 2-13-7z" fill="#A32F06"/>
<path transform="translate(706,789)" d="m0 0 5 2v4l-7-2-1-3z" fill="#1F202A"/>
<path transform="translate(821,780)" d="m0 0m-9 1h9v2l-5 2h-5z" fill="#D86F28"/>
<path transform="translate(947,403)" d="m0 0 1 2-2 7-3 6-1-4 3-8z" fill="#0F0A0A"/>
<path transform="translate(1261,900)" d="m0 0h11l5 1-2 2h-9l-5-1z" fill="#5D3123"/>
<path transform="translate(667,741)" d="m0 0h2l-3 9-3 7-1-4 3-7z" fill="#B33001"/>
<path transform="translate(932,352)" d="m0 0 3 1v4l-6 3 1-7z" fill="#CCCDCE"/>
<path transform="translate(836,735)" d="m0 0h1l-1 8-1 1h-15v-1l13-1z" fill="#B33001"/>
<path transform="translate(1372,465)" d="m0 0 5 1 6 3 1 4-12-6z" fill="#4F2C25"/>
<path transform="translate(830,440)" d="m0 0 1 3-7 12-2 1 1-4z" fill="#482822"/>
<path transform="translate(742,379)" d="m0 0h1l-1 7-3 1v2h-2l2-6zm-7 10 2 1-2 1z" fill="#262229"/>
<path transform="translate(244,275)" d="m0 0 6 2v5l-6-2-1-4z" fill="#CB3401"/>
<path transform="translate(331,139)" d="m0 0 1 2-5 8-6 4 2-4z" fill="#BC3101"/>
<path transform="translate(383,86)" d="m0 0 2 1-5 6 1 4-4-2v-4z" fill="#BA3101"/>
<path transform="translate(1438,543)" d="m0 0 3 1 2 8-1 5-2-4z" fill="#B33001"/>
<path transform="translate(392,81)" d="m0 0 2 1-9 8-3-1 5-5z" fill="#C33301"/>
<path transform="translate(735,708)" d="m0 0h14l2 1-2 5-2 1v-5l-12-1z" fill="#312C30"/>
<path transform="translate(909,779)" d="m0 0 1 3-3 14h-1v-10z" fill="#B33001"/>
<path transform="translate(678,750)" d="m0 0 1 3-6 11h-2l2-4 3-7z" fill="#312C30"/>
<path transform="translate(1177,612)" d="m0 0h12v1l-14 2-3 1-2-2z" fill="#B33001"/>
<path transform="translate(1367,456)" d="m0 0 7 1 5 4-2 2-1-2-8-3z" fill="#FEC61B"/>
<path transform="translate(694,453)" d="m0 0 5 1 2 1v2l3 1-1 3-9-7z" fill="#52291F"/>
</svg>
